<mxfile host="app.diagrams.net" agent="Mozilla/5.0 (X11; Linux x86_64) AppleWebKit/537.36 (KHTML, like Gecko) Chrome/132.0.0.0 Safari/537.36" version="28.0.7">
  <diagram name="Page-1" id="Kw5NMBNeJMxN6zYnmuAU">
    <mxGraphModel dx="2507" dy="2113" grid="1" gridSize="10" guides="1" tooltips="1" connect="1" arrows="1" fold="1" page="1" pageScale="1" pageWidth="850" pageHeight="1100" math="0" shadow="0">
      <root>
        <mxCell id="0" />
        <mxCell id="1" parent="0" />
        <mxCell id="z3ftgzrEW_vmbGAGni-j-2" value="" style="rounded=0;whiteSpace=wrap;html=1;" parent="1" vertex="1">
          <mxGeometry x="-210" y="-160" width="1250" height="1070" as="geometry" />
        </mxCell>
        <mxCell id="z3ftgzrEW_vmbGAGni-j-3" value="" style="rounded=0;whiteSpace=wrap;html=1;fillColor=#f5f5f5;strokeColor=#666666;fontColor=#333333;strokeWidth=2;" parent="1" vertex="1">
          <mxGeometry x="-30" y="70" width="970" height="150" as="geometry" />
        </mxCell>
        <mxCell id="L5JQNhEUDKY4b-Tlf11Z-7" style="edgeStyle=orthogonalEdgeStyle;rounded=0;orthogonalLoop=1;jettySize=auto;html=1;exitX=1;exitY=0.5;exitDx=0;exitDy=0;" parent="1" source="z3ftgzrEW_vmbGAGni-j-4" target="z3ftgzrEW_vmbGAGni-j-11" edge="1">
          <mxGeometry relative="1" as="geometry" />
        </mxCell>
        <mxCell id="z3ftgzrEW_vmbGAGni-j-4" value="&lt;font style=&quot;font-size: 14px;&quot;&gt;Subscribe Event Consumer&lt;/font&gt;" style="rounded=1;whiteSpace=wrap;html=1;" parent="1" vertex="1">
          <mxGeometry x="30" y="107.5" width="120" height="65" as="geometry" />
        </mxCell>
        <mxCell id="z3ftgzrEW_vmbGAGni-j-35" value="" style="edgeStyle=orthogonalEdgeStyle;rounded=0;orthogonalLoop=1;jettySize=auto;html=1;" parent="1" source="z3ftgzrEW_vmbGAGni-j-6" target="z3ftgzrEW_vmbGAGni-j-12" edge="1">
          <mxGeometry relative="1" as="geometry" />
        </mxCell>
        <mxCell id="z3ftgzrEW_vmbGAGni-j-6" value="&lt;font style=&quot;font-size: 15px;&quot;&gt;Weather Event&amp;nbsp;&lt;/font&gt;&lt;div&gt;&lt;span style=&quot;font-size: 15px;&quot;&gt;Consumer&lt;/span&gt;&lt;/div&gt;" style="rounded=1;whiteSpace=wrap;html=1;" parent="1" vertex="1">
          <mxGeometry x="760" y="100" width="120" height="68.75" as="geometry" />
        </mxCell>
        <mxCell id="z3ftgzrEW_vmbGAGni-j-8" value="&lt;font style=&quot;font-size: 17px;&quot;&gt;&amp;nbsp;Interface&lt;/font&gt;" style="text;html=1;align=center;verticalAlign=middle;whiteSpace=wrap;rounded=0;fontStyle=1" parent="1" vertex="1">
          <mxGeometry x="-160" y="130" width="60" height="30" as="geometry" />
        </mxCell>
        <mxCell id="z3ftgzrEW_vmbGAGni-j-11" value="&lt;span style=&quot;font-size: 14px;&quot;&gt;Subscribe Event Handler&lt;/span&gt;" style="rounded=1;whiteSpace=wrap;html=1;dashed=1;fillColor=#dae8fc;strokeColor=#6c8ebf;" parent="1" vertex="1">
          <mxGeometry x="260" y="105.61999999999999" width="120" height="68.75" as="geometry" />
        </mxCell>
        <mxCell id="z3ftgzrEW_vmbGAGni-j-12" value="&lt;span style=&quot;font-size: 14px;&quot;&gt;Weather Event&amp;nbsp;&lt;/span&gt;&lt;div&gt;&lt;span style=&quot;font-size: 14px;&quot;&gt;Handler&lt;/span&gt;&lt;/div&gt;" style="rounded=1;whiteSpace=wrap;html=1;dashed=1;fillColor=#dae8fc;strokeColor=#6c8ebf;" parent="1" vertex="1">
          <mxGeometry x="550" y="100" width="120" height="68.75" as="geometry" />
        </mxCell>
        <mxCell id="z3ftgzrEW_vmbGAGni-j-14" value="" style="rounded=0;whiteSpace=wrap;html=1;fillColor=#f5f5f5;strokeColor=#666666;fontColor=#333333;strokeWidth=2;" parent="1" vertex="1">
          <mxGeometry x="-30" y="250" width="970" height="270" as="geometry" />
        </mxCell>
        <mxCell id="z3ftgzrEW_vmbGAGni-j-22" value="" style="rounded=0;orthogonalLoop=1;jettySize=auto;html=1;exitX=0.5;exitY=0;exitDx=0;exitDy=0;entryX=0.5;entryY=1;entryDx=0;entryDy=0;dashed=1;strokeWidth=2;" parent="1" source="z3ftgzrEW_vmbGAGni-j-16" target="z3ftgzrEW_vmbGAGni-j-11" edge="1">
          <mxGeometry relative="1" as="geometry" />
        </mxCell>
        <mxCell id="0Qs0Hg6OfpPwzjznqUef-4" style="edgeStyle=orthogonalEdgeStyle;rounded=0;orthogonalLoop=1;jettySize=auto;html=1;exitX=0;exitY=0.5;exitDx=0;exitDy=0;" edge="1" parent="1" source="z3ftgzrEW_vmbGAGni-j-16" target="R8bRqbQ6-cuv9lgSVqGH-5">
          <mxGeometry relative="1" as="geometry" />
        </mxCell>
        <mxCell id="z3ftgzrEW_vmbGAGni-j-16" value="&lt;font style=&quot;font-size: 14px;&quot;&gt;Subscribe Event&amp;nbsp;&lt;/font&gt;&lt;div&gt;&lt;span style=&quot;font-size: 14px;&quot;&gt;Handler&lt;/span&gt;&lt;/div&gt;" style="rounded=1;whiteSpace=wrap;html=1;" parent="1" vertex="1">
          <mxGeometry x="260" y="370" width="120" height="65" as="geometry" />
        </mxCell>
        <mxCell id="z3ftgzrEW_vmbGAGni-j-34" value="" style="rounded=0;orthogonalLoop=1;jettySize=auto;html=1;exitX=0.5;exitY=0;exitDx=0;exitDy=0;entryX=0.5;entryY=1;entryDx=0;entryDy=0;dashed=1;strokeWidth=2;" parent="1" source="z3ftgzrEW_vmbGAGni-j-18" target="z3ftgzrEW_vmbGAGni-j-12" edge="1">
          <mxGeometry relative="1" as="geometry" />
        </mxCell>
        <mxCell id="0Qs0Hg6OfpPwzjznqUef-1" style="rounded=0;orthogonalLoop=1;jettySize=auto;html=1;exitX=1;exitY=0.5;exitDx=0;exitDy=0;entryX=0;entryY=0.5;entryDx=0;entryDy=0;" edge="1" parent="1" source="z3ftgzrEW_vmbGAGni-j-18" target="R8bRqbQ6-cuv9lgSVqGH-19">
          <mxGeometry relative="1" as="geometry" />
        </mxCell>
        <mxCell id="z3ftgzrEW_vmbGAGni-j-18" value="&lt;span style=&quot;font-size: 15px;&quot;&gt;Weather Event Handler&lt;/span&gt;" style="rounded=1;whiteSpace=wrap;html=1;" parent="1" vertex="1">
          <mxGeometry x="550" y="370" width="120" height="68.75" as="geometry" />
        </mxCell>
        <mxCell id="z3ftgzrEW_vmbGAGni-j-23" value="&lt;font style=&quot;font-size: 17px;&quot;&gt;Application&lt;/font&gt;" style="text;html=1;align=center;verticalAlign=middle;whiteSpace=wrap;rounded=0;fontStyle=1" parent="1" vertex="1">
          <mxGeometry x="-180" y="387.5" width="100" height="30" as="geometry" />
        </mxCell>
        <mxCell id="z3ftgzrEW_vmbGAGni-j-51" value="" style="rounded=0;whiteSpace=wrap;html=1;fillColor=#f5f5f5;strokeColor=#666666;fontColor=#333333;strokeWidth=2;" parent="1" vertex="1">
          <mxGeometry x="-30" y="540" width="970" height="300" as="geometry" />
        </mxCell>
        <mxCell id="z3ftgzrEW_vmbGAGni-j-57" value="&lt;font style=&quot;font-size: 17px;&quot;&gt;Infrastructure&lt;/font&gt;" style="text;html=1;align=center;verticalAlign=middle;whiteSpace=wrap;rounded=0;fontStyle=1" parent="1" vertex="1">
          <mxGeometry x="-170" y="700" width="100" height="30" as="geometry" />
        </mxCell>
        <mxCell id="R8bRqbQ6-cuv9lgSVqGH-5" value="&lt;font style=&quot;font-size: 14px;&quot;&gt;Subscription&lt;/font&gt;&lt;div&gt;&lt;font style=&quot;font-size: 14px;&quot;&gt;mailer&lt;/font&gt;&lt;/div&gt;" style="rounded=1;whiteSpace=wrap;html=1;fillColor=#dae8fc;strokeColor=#6c8ebf;dashed=1;" parent="1" vertex="1">
          <mxGeometry x="40" y="373.75" width="120" height="60" as="geometry" />
        </mxCell>
        <mxCell id="R8bRqbQ6-cuv9lgSVqGH-8" value="" style="edgeStyle=orthogonalEdgeStyle;rounded=0;orthogonalLoop=1;jettySize=auto;html=1;exitX=0.5;exitY=0;exitDx=0;exitDy=0;dashed=1;strokeWidth=2;" parent="1" source="R8bRqbQ6-cuv9lgSVqGH-7" target="R8bRqbQ6-cuv9lgSVqGH-5" edge="1">
          <mxGeometry relative="1" as="geometry" />
        </mxCell>
        <mxCell id="0Qs0Hg6OfpPwzjznqUef-2" style="rounded=0;orthogonalLoop=1;jettySize=auto;html=1;exitX=1;exitY=0.5;exitDx=0;exitDy=0;entryX=0;entryY=0.5;entryDx=0;entryDy=0;" edge="1" parent="1" source="R8bRqbQ6-cuv9lgSVqGH-7" target="R8bRqbQ6-cuv9lgSVqGH-10">
          <mxGeometry relative="1" as="geometry" />
        </mxCell>
        <mxCell id="R8bRqbQ6-cuv9lgSVqGH-7" value="&lt;font style=&quot;font-size: 14px;&quot;&gt;Subscription mailer&lt;/font&gt;" style="rounded=1;whiteSpace=wrap;html=1;" parent="1" vertex="1">
          <mxGeometry x="40" y="640" width="120" height="60" as="geometry" />
        </mxCell>
        <mxCell id="R8bRqbQ6-cuv9lgSVqGH-12" value="" style="rounded=0;orthogonalLoop=1;jettySize=auto;html=1;exitX=0.5;exitY=0;exitDx=0;exitDy=0;entryX=0.25;entryY=1;entryDx=0;entryDy=0;dashed=1;strokeWidth=2;" parent="1" source="R8bRqbQ6-cuv9lgSVqGH-9" target="R8bRqbQ6-cuv9lgSVqGH-10" edge="1">
          <mxGeometry relative="1" as="geometry" />
        </mxCell>
        <mxCell id="R8bRqbQ6-cuv9lgSVqGH-9" value="SMTP backend" style="rounded=1;whiteSpace=wrap;html=1;" parent="1" vertex="1">
          <mxGeometry x="220" y="750" width="120" height="60" as="geometry" />
        </mxCell>
        <mxCell id="R8bRqbQ6-cuv9lgSVqGH-10" value="email backend" style="rounded=1;whiteSpace=wrap;html=1;fillColor=#dae8fc;strokeColor=#6c8ebf;dashed=1;" parent="1" vertex="1">
          <mxGeometry x="380" y="640" width="120" height="60" as="geometry" />
        </mxCell>
        <mxCell id="R8bRqbQ6-cuv9lgSVqGH-14" value="" style="rounded=0;orthogonalLoop=1;jettySize=auto;html=1;exitX=0.5;exitY=0;exitDx=0;exitDy=0;entryX=0.75;entryY=1;entryDx=0;entryDy=0;dashed=1;strokeWidth=2;" parent="1" source="R8bRqbQ6-cuv9lgSVqGH-13" target="R8bRqbQ6-cuv9lgSVqGH-10" edge="1">
          <mxGeometry relative="1" as="geometry" />
        </mxCell>
        <mxCell id="R8bRqbQ6-cuv9lgSVqGH-13" value="stdout backend" style="rounded=1;whiteSpace=wrap;html=1;" parent="1" vertex="1">
          <mxGeometry x="540" y="750" width="120" height="60" as="geometry" />
        </mxCell>
        <mxCell id="R8bRqbQ6-cuv9lgSVqGH-19" value="&lt;span style=&quot;font-size: 14px; background-color: transparent; color: light-dark(rgb(0, 0, 0), rgb(255, 255, 255));&quot;&gt;Wather Mailer&lt;/span&gt;" style="rounded=1;whiteSpace=wrap;html=1;dashed=1;fillColor=#dae8fc;strokeColor=#6c8ebf;" parent="1" vertex="1">
          <mxGeometry x="770" y="373.75" width="120" height="65" as="geometry" />
        </mxCell>
        <mxCell id="R8bRqbQ6-cuv9lgSVqGH-23" value="" style="rounded=0;orthogonalLoop=1;jettySize=auto;html=1;exitX=0.5;exitY=0;exitDx=0;exitDy=0;entryX=0.5;entryY=1;entryDx=0;entryDy=0;dashed=1;strokeWidth=2;" parent="1" source="R8bRqbQ6-cuv9lgSVqGH-21" target="R8bRqbQ6-cuv9lgSVqGH-19" edge="1">
          <mxGeometry relative="1" as="geometry" />
        </mxCell>
        <mxCell id="0Qs0Hg6OfpPwzjznqUef-3" style="rounded=0;orthogonalLoop=1;jettySize=auto;html=1;exitX=0;exitY=0.5;exitDx=0;exitDy=0;entryX=1;entryY=0.5;entryDx=0;entryDy=0;" edge="1" parent="1" source="R8bRqbQ6-cuv9lgSVqGH-21" target="R8bRqbQ6-cuv9lgSVqGH-10">
          <mxGeometry relative="1" as="geometry" />
        </mxCell>
        <mxCell id="R8bRqbQ6-cuv9lgSVqGH-21" value="&lt;font style=&quot;font-size: 14px;&quot;&gt;Weather mailer&lt;/font&gt;" style="rounded=1;whiteSpace=wrap;html=1;" parent="1" vertex="1">
          <mxGeometry x="770" y="640" width="120" height="60" as="geometry" />
        </mxCell>
        <mxCell id="wK9Htb5V1dsAcN9Kde3Y-1" value="&lt;font style=&quot;font-size: 20px;&quot;&gt;&lt;b style=&quot;&quot;&gt;Notification Service Architecture&lt;/b&gt;&lt;/font&gt;" style="text;html=1;align=center;verticalAlign=middle;whiteSpace=wrap;rounded=0;" parent="1" vertex="1">
          <mxGeometry x="185" y="-100" width="480" height="70" as="geometry" />
        </mxCell>
        <mxCell id="wK9Htb5V1dsAcN9Kde3Y-28" value="" style="group" parent="1" connectable="0" vertex="1">
          <mxGeometry x="810" y="-130.00142857142856" width="210" height="180.00142857142856" as="geometry" />
        </mxCell>
        <mxCell id="wK9Htb5V1dsAcN9Kde3Y-5" value="" style="rounded=0;whiteSpace=wrap;html=1;" parent="wK9Htb5V1dsAcN9Kde3Y-28" vertex="1">
          <mxGeometry y="0.0014285714285620088" width="210" height="180" as="geometry" />
        </mxCell>
        <mxCell id="wK9Htb5V1dsAcN9Kde3Y-6" value="&lt;font style=&quot;font-size: 14px;&quot;&gt;&lt;b&gt;Legend&lt;/b&gt;&lt;/font&gt;" style="text;html=1;align=center;verticalAlign=middle;whiteSpace=wrap;rounded=0;" parent="wK9Htb5V1dsAcN9Kde3Y-28" vertex="1">
          <mxGeometry x="75" width="60" height="34.28571428571428" as="geometry" />
        </mxCell>
        <mxCell id="wK9Htb5V1dsAcN9Kde3Y-8" value="" style="rounded=1;whiteSpace=wrap;html=1;fillColor=#dae8fc;strokeColor=#6c8ebf;dashed=1;" parent="wK9Htb5V1dsAcN9Kde3Y-28" vertex="1">
          <mxGeometry x="10" y="40.00476190476189" width="50" height="28.949333333333332" as="geometry" />
        </mxCell>
        <mxCell id="wK9Htb5V1dsAcN9Kde3Y-9" value="&lt;i&gt;interface&lt;/i&gt;" style="text;html=1;align=center;verticalAlign=middle;whiteSpace=wrap;rounded=0;" parent="wK9Htb5V1dsAcN9Kde3Y-28" vertex="1">
          <mxGeometry x="60" y="40.0040952380952" width="60" height="32" as="geometry" />
        </mxCell>
        <mxCell id="wK9Htb5V1dsAcN9Kde3Y-10" value="" style="rounded=1;whiteSpace=wrap;html=1;" parent="wK9Htb5V1dsAcN9Kde3Y-28" vertex="1">
          <mxGeometry x="10" y="80.00142857142856" width="50" height="30" as="geometry" />
        </mxCell>
        <mxCell id="wK9Htb5V1dsAcN9Kde3Y-11" value="&lt;i&gt;implementation&lt;/i&gt;" style="text;html=1;align=center;verticalAlign=middle;whiteSpace=wrap;rounded=0;" parent="wK9Htb5V1dsAcN9Kde3Y-28" vertex="1">
          <mxGeometry x="60" y="80.00142857142856" width="90" height="30" as="geometry" />
        </mxCell>
        <mxCell id="wK9Htb5V1dsAcN9Kde3Y-13" value="" style="endArrow=classic;html=1;rounded=0;" parent="wK9Htb5V1dsAcN9Kde3Y-28" edge="1">
          <mxGeometry width="50" height="50" relative="1" as="geometry">
            <mxPoint x="10" y="124.76142857142855" as="sourcePoint" />
            <mxPoint x="50" y="125.00142857142856" as="targetPoint" />
          </mxGeometry>
        </mxCell>
        <mxCell id="wK9Htb5V1dsAcN9Kde3Y-15" value="&lt;i&gt;aggregation&lt;/i&gt;" style="text;html=1;align=center;verticalAlign=middle;whiteSpace=wrap;rounded=0;" parent="wK9Htb5V1dsAcN9Kde3Y-28" vertex="1">
          <mxGeometry x="60" y="110.00142857142856" width="70" height="30" as="geometry" />
        </mxCell>
        <mxCell id="wK9Htb5V1dsAcN9Kde3Y-16" value="" style="endArrow=classic;html=1;rounded=0;dashed=1;" parent="wK9Htb5V1dsAcN9Kde3Y-28" edge="1">
          <mxGeometry width="50" height="50" relative="1" as="geometry">
            <mxPoint x="10" y="150.00142857142856" as="sourcePoint" />
            <mxPoint x="50" y="150.24142857142857" as="targetPoint" />
          </mxGeometry>
        </mxCell>
        <mxCell id="wK9Htb5V1dsAcN9Kde3Y-27" value="&lt;i&gt;implements&lt;/i&gt;" style="text;html=1;align=center;verticalAlign=middle;whiteSpace=wrap;rounded=0;" parent="wK9Htb5V1dsAcN9Kde3Y-28" vertex="1">
          <mxGeometry x="60" y="140.00142857142856" width="70" height="30" as="geometry" />
        </mxCell>
      </root>
    </mxGraphModel>
  </diagram>
</mxfile>
